<svg xmlns="http://www.w3.org/2000/svg" width="19.75" height="37.539" viewBox="0 0 19.75 37.539">
  <path id="J" d="M-501.3,272.757v25.8a14.346,14.346,0,0,1-.71,4.533,10.263,10.263,0,0,1-2.16,3.736,10.337,10.337,0,0,1-3.638,2.53,12.987,12.987,0,0,1-5.143.937,16.807,16.807,0,0,1-2.259-.156,19.9,19.9,0,0,1-2.217-.426,15.013,15.013,0,0,1-2-.653,9.113,9.113,0,0,1-1.62-.839v-5.087a14.79,14.79,0,0,0,3.907,2.018,12.981,12.981,0,0,0,4.248.739,6.049,6.049,0,0,0,4.775-1.89,7.941,7.941,0,0,0,1.677-5.442V277.133h-14.124v-4.376Z" transform="translate(521.051 -272.757)" fill="#fff"/>
</svg>
