<svg xmlns="http://www.w3.org/2000/svg" width="25.036" height="37.142" viewBox="0 0 25.036 37.142">
  <path id="R" d="M-665.133,309.9h-5.712l-5.542-11.879a13.016,13.016,0,0,0-1.279-2.259,6.083,6.083,0,0,0-1.406-1.421,5.034,5.034,0,0,0-1.648-.753,8.181,8.181,0,0,0-2-.227h-2.387V309.9h-5.058V272.757h9.946a19.256,19.256,0,0,1,5.57.71,10.531,10.531,0,0,1,3.822,1.989,7.618,7.618,0,0,1,2.188,3.084,11.02,11.02,0,0,1,.7,3.993,10.394,10.394,0,0,1-.512,3.282,8.975,8.975,0,0,1-1.521,2.813,9.663,9.663,0,0,1-2.5,2.189A11.449,11.449,0,0,1-675.9,292.2a5.825,5.825,0,0,1,2.656,1.889,20.4,20.4,0,0,1,2.231,3.595Zm-8.1-26.94a5.353,5.353,0,0,0-1.862-4.462,8.246,8.246,0,0,0-5.242-1.477h-4.775V289.3h4.092a11.675,11.675,0,0,0,3.226-.412,6.871,6.871,0,0,0,2.444-1.222,5.55,5.55,0,0,0,1.563-1.989A6.319,6.319,0,0,0-673.232,282.959Z" transform="translate(690.169 -272.757)" fill="#fff"/>
</svg>
