<svg xmlns="http://www.w3.org/2000/svg" width="25.178" height="38.166" viewBox="0 0 25.178 38.166">
  <path id="S" d="M-413.5,299.839a9.558,9.558,0,0,1-1.08,4.632,9.415,9.415,0,0,1-3.012,3.311,13.973,13.973,0,0,1-4.647,1.975,25.534,25.534,0,0,1-5.982.654q-1.478,0-2.941-.115t-2.813-.284q-1.35-.17-2.544-.4t-2.159-.484v-4.887a26.4,26.4,0,0,0,4.788,1.25,36.062,36.062,0,0,0,6.039.455,19.392,19.392,0,0,0,4.163-.384,8.009,8.009,0,0,0,2.814-1.137,4.5,4.5,0,0,0,1.591-1.833,5.857,5.857,0,0,0,.5-2.472,4.033,4.033,0,0,0-.838-2.572,8.25,8.25,0,0,0-2.2-1.9,20.3,20.3,0,0,0-3.111-1.535q-1.748-.7-3.567-1.435t-3.566-1.605a14.787,14.787,0,0,1-3.112-2.047,9.423,9.423,0,0,1-2.2-2.771,8,8,0,0,1-.839-3.779,9.4,9.4,0,0,1,.8-3.751,8.994,8.994,0,0,1,2.472-3.282,12.809,12.809,0,0,1,4.306-2.317,19.8,19.8,0,0,1,6.266-.881q.938,0,2.032.085t2.216.243q1.122.156,2.217.355t2.032.426V277.9a34.255,34.255,0,0,0-4.377-.952,28.65,28.65,0,0,0-4.234-.328q-4.347,0-6.394,1.451a4.534,4.534,0,0,0-2.046,3.892,4.089,4.089,0,0,0,.838,2.586,8.331,8.331,0,0,0,2.2,1.933,19.44,19.44,0,0,0,3.111,1.549q1.749.7,3.567,1.434t3.566,1.62a14.536,14.536,0,0,1,3.112,2.089,9.712,9.712,0,0,1,2.2,2.827A8.26,8.26,0,0,1-413.5,299.839Z" transform="translate(438.68 -272.245)" fill="#fff"/>
</svg>
