<svg xmlns="http://www.w3.org/2000/svg" xmlns:xlink="http://www.w3.org/1999/xlink" width="150" height="200" viewBox="0 0 150 200">
  <defs>
    <clipPath id="clip-Web_1920_1">
      <rect width="150" height="200"/>
    </clipPath>
  </defs>
  <g id="Web_1920_1" data-name="Web 1920 – 1" clip-path="url(#clip-Web_1920_1)">
    <rect width="150" height="200" fill="#4e8ee9"/>
    <g id="Group_1" data-name="Group 1" transform="translate(-4 33.438)">
      <g id="ethereum-white-logo-vector" transform="translate(-2.72 -6.488)">
        <path id="Path_2" data-name="Path 2" d="M494.825,438.467l20.206-11.942L494.825,393l-20.206,33.527Z" transform="translate(-413.899 -370.951)" fill="#fff"/>
        <path id="Path_3" data-name="Path 3" d="M978.806,762.77l20.216-28.47-20.216,11.93L958.6,734.3Z" transform="translate(-897.878 -674.894)" fill="#fff"/>
      </g>
      <path id="Path_2-2" data-name="Path 2" d="M446.1,460.732a.458.458,0,0,1-.454.454h-8.8A4.4,4.4,0,0,0,441,465.341a4.114,4.114,0,0,0,3.622-1.854.438.438,0,0,1,.558-.183.426.426,0,0,1,.247.318.432.432,0,0,1-.055.3,4.949,4.949,0,0,1-4.369,2.3,5.49,5.49,0,1,1,5.094-5.491m-.939-.438a4.155,4.155,0,1,0-8.309,0Zm11.6-4.808a.447.447,0,0,1,.438.438.425.425,0,0,1-.438.438h-2.356v9.248a.438.438,0,1,1-.875,0v-9.248h-2.27a.425.425,0,0,1-.438-.438.447.447,0,0,1,.438-.438h2.27V452.1a.438.438,0,0,1,.357-.445.426.426,0,0,1,.525.426v3.4Zm14.381,4.464v5.6a.447.447,0,0,1-.438.438.426.426,0,0,1-.438-.438v-5.6a3.4,3.4,0,0,0-3.176-3.772c-2.707,0-3.868,2.356-3.708,4.783,0,.064.031.342.031.375v4.2a.44.44,0,0,1-.359.446.426.426,0,0,1-.525-.426v-18.4a.438.438,0,0,1,.875,0v10.409a4.1,4.1,0,0,1,7.736,2.388m15.759.78a.458.458,0,0,1-.454.454h-8.8a4.4,4.4,0,0,0,4.155,4.155,4.114,4.114,0,0,0,3.622-1.854.438.438,0,0,1,.558-.183.426.426,0,0,1,.247.318.433.433,0,0,1-.055.3,4.949,4.949,0,0,1-4.369,2.3,5.49,5.49,0,1,1,5.094-5.491m-.948-.438a4.155,4.155,0,1,0-8.309,0Zm11.739-4.4a.426.426,0,0,1-.406.47c-2.579.375-3.741,2.482-3.741,4.942v4.2a.44.44,0,0,1-.357.445.426.426,0,0,1-.525-.426v-9.59a.44.44,0,0,1,.358-.445.426.426,0,0,1,.525.426v1.951a4.681,4.681,0,0,1,3.677-2.388.461.461,0,0,1,.47.414m14.437,4.839a.458.458,0,0,1-.454.454h-8.8a4.4,4.4,0,0,0,4.155,4.155,4.114,4.114,0,0,0,3.622-1.854.438.438,0,0,1,.558-.183.426.426,0,0,1,.247.318.432.432,0,0,1-.055.3,4.949,4.949,0,0,1-4.369,2.3,5.49,5.49,0,1,1,5.094-5.491m-.947-.438a4.155,4.155,0,1,0-8.309,0Zm15.137-4.29v9.607a.447.447,0,0,1-.438.438.425.425,0,0,1-.438-.438v-1.823a4.114,4.114,0,0,1-3.653,2.482,4.256,4.256,0,0,1-4.059-4.656v-5.635a.438.438,0,0,1,.875,0v5.635a3.4,3.4,0,0,0,3.176,3.772c2.961,0,3.653-2.769,3.653-5.816v-3.589a.446.446,0,0,1,.567-.426.471.471,0,0,1,.318.445m22.236,3.915v5.635a.447.447,0,0,1-.438.438.426.426,0,0,1-.438-.438v-5.635a3.368,3.368,0,0,0-3.176-3.741c-2.643,0-3.653,2.837-3.653,5.03v4.338a.447.447,0,0,1-.438.438.426.426,0,0,1-.438-.438v-5.635a3.368,3.368,0,0,0-3.176-3.741c-2.674,0-3.772,2.109-3.677,4.911,0,.064.031.191,0,.223v4.234a.439.439,0,0,1-.357.446.426.426,0,0,1-.525-.426v-9.622a.44.44,0,0,1,.358-.445.426.426,0,0,1,.525.425v1.607a4.209,4.209,0,0,1,3.677-2.237,3.9,3.9,0,0,1,3.741,2.8,4.351,4.351,0,0,1,3.963-2.8,4.256,4.256,0,0,1,4.052,4.632" transform="translate(-413.12 -356.742)" fill="#fff"/>
    </g>
  </g>
</svg>
