<svg xmlns="http://www.w3.org/2000/svg" xmlns:xlink="http://www.w3.org/1999/xlink" width="150" height="200" viewBox="0 0 150 200">
  <defs>
    <clipPath id="clip-html_">
      <rect width="150" height="200"/>
    </clipPath>
  </defs>
  <g id="html_" data-name="html " clip-path="url(#clip-html_)">
    <rect width="150" height="200" fill="#f16529"/>
    <g id="html5" transform="translate(-183.807 -41.47)">
      <path id="Path_15" data-name="Path 15" d="M228.476,286.328l-6.669-74.806h73.286l-6.677,74.794-30.011,8.32Z" transform="translate(0 -101.723)" fill="#e44d26"/>
      <path id="Path_16" data-name="Path 16" d="M441.807,318.884l24.25-6.723,5.706-63.914H441.807Z" transform="translate(-183.357 -132.331)" fill="#f16529"/>
      <path id="Path_17" data-name="Path 17" d="M326.689,321.9h-12.14l-.839-9.395h12.979V303.33H303.683l.22,2.461,2.255,25.283h20.531Zm0,23.827-.04.011-10.218-2.759-.653-7.317h-9.21l1.285,14.406,18.793,5.217.042-.012Z" transform="translate(-68.239 -178.24)" fill="#ebebeb"/>
      <path id="Path_18" data-name="Path 18" d="M262.745,89.47h4.662v4.606h4.265V89.47h4.662v13.949h-4.662V98.748h-4.265v4.671h-4.662ZM282.466,94.1h-4.1V89.47h12.874V94.1h-4.106v9.323h-4.663V94.1Zm10.812-4.626h4.862l2.991,4.9,2.988-4.9h4.863v13.949h-4.644V96.505l-3.208,4.96h-.08l-3.21-4.96v6.914h-4.562V89.47Zm18.024,0h4.664v9.339h6.557v4.611H311.3Z" transform="translate(-34.119 0)" fill="#fff"/>
      <path id="Path_19" data-name="Path 19" d="M441.617,321.9v9.174h11.3l-1.065,11.9-10.233,2.762v9.545l18.809-5.212.138-1.55,2.156-24.153.224-2.464H441.617Zm0-18.57V312.5h22.161l.184-2.062.418-4.651.219-2.461Z" transform="translate(-183.199 -178.24)" fill="#fff"/>
    </g>
  </g>
</svg>
