<svg xmlns="http://www.w3.org/2000/svg" xmlns:xlink="http://www.w3.org/1999/xlink" width="150" height="200" viewBox="0 0 150 200">
  <defs>
    <clipPath id="clip-ionic_">
      <rect width="150" height="200"/>
    </clipPath>
  </defs>
  <g id="ionic_" data-name="ionic " clip-path="url(#clip-ionic_)">
    <rect width="150" height="200" fill="#4e8ef7"/>
    <g id="ionic" transform="translate(17.898 80)">
      <path id="Path_13" data-name="Path 13" d="M227.681,64.966h.82V80.483h-.82Zm12.472-.381a8.14,8.14,0,1,0,8.169,8.139A7.984,7.984,0,0,0,240.153,64.585Zm0,15.518a7.378,7.378,0,1,1,7.35-7.378A7.2,7.2,0,0,1,240.153,80.1ZM263.81,66.137a7.723,7.723,0,0,0-4.948-1.552c-2.459,0-5.183,1.142-6.148,3.367h-.059V64.966h-.82V80.483h.82v-8.93c0-3.894,2.4-6.207,6.295-6.207a6.155,6.155,0,0,1,4.391,1.464c1.171,1.054,1.9,2.781,1.9,5.474v8.2h.82v-8.2C266.064,69.5,265.332,67.425,263.81,66.137Zm6.792-1.171h.82V80.483h-.82ZM283.074,80.1a7.231,7.231,0,0,1-7.349-7.378,7.385,7.385,0,0,1,2.137-5.3,7.128,7.128,0,0,1,5.241-2.078A7.009,7.009,0,0,1,289.9,70h.908a8.176,8.176,0,1,0-7.729,10.863,7.87,7.87,0,0,0,7.7-5.27h-.907A7.025,7.025,0,0,1,283.074,80.1Z" transform="translate(-177.035 -50.241)" fill="#fff"/>
      <circle id="Ellipse_2" data-name="Ellipse 2" cx="0.885" cy="0.885" r="0.885" transform="translate(50.171 9.03)" fill="#fff"/>
      <circle id="Ellipse_3" data-name="Ellipse 3" cx="0.885" cy="0.885" r="0.885" transform="translate(93.091 9.03)" fill="#fff"/>
      <circle id="Ellipse_4" data-name="Ellipse 4" cx="8.095" cy="8.095" r="8.095" transform="translate(11.834 11.732)" fill="#fff"/>
      <path id="Path_14" data-name="Path 14" d="M36.448,6.091a2.781,2.781,0,0,0-4.606-2.1,19.844,19.844,0,1,0,3.923,3.923,2.768,2.768,0,0,0,.682-1.822Zm-16.52,32.9a19.16,19.16,0,1,1,11.464-34.5,2.781,2.781,0,0,0,3.877,3.877A19.15,19.15,0,0,1,19.928,38.986Z" fill="#fff"/>
    </g>
  </g>
</svg>
