<svg xmlns="http://www.w3.org/2000/svg" xmlns:xlink="http://www.w3.org/1999/xlink" width="150" height="200" viewBox="0 0 150 200">
  <defs>
    <clipPath id="clip-JS">
      <rect width="150" height="200"/>
    </clipPath>
  </defs>
  <g id="JS" clip-path="url(#clip-JS)">
    <rect width="150" height="200" fill="#f7df1e"/>
    <g id="javascript" transform="translate(5.098 27.48)">
      <path id="Path_2" data-name="Path 2" d="M67.312,170.071l10.8-6.538c2.084,3.7,3.98,6.822,8.528,6.822,4.359,0,7.108-1.7,7.108-8.338V116.912h13.266V162.2c0,13.74-8.054,19.994-19.8,19.994-10.612,0-16.772-5.5-19.9-12.129m46.91-1.42,10.8-6.254c2.844,4.644,6.539,8.055,13.077,8.055,5.5,0,9-2.748,9-6.539,0-4.548-3.6-6.159-9.665-8.812l-3.316-1.423c-9.571-4.073-15.92-9.191-15.92-19.993,0-9.95,7.58-17.531,19.426-17.531,8.433,0,14.5,2.938,18.856,10.613L146.153,133.4c-2.275-4.074-4.737-5.685-8.528-5.685-3.885,0-6.349,2.464-6.349,5.685,0,3.98,2.464,5.591,8.149,8.055l3.316,1.421c11.277,4.833,17.625,9.76,17.625,20.846,0,11.94-9.381,18.478-21.984,18.478-12.318,0-20.278-5.875-24.163-13.551" transform="translate(-44.409 -76.633)"/>
    </g>
  </g>
</svg>
