<svg xmlns="http://www.w3.org/2000/svg" xmlns:xlink="http://www.w3.org/1999/xlink" width="150" height="200" viewBox="0 0 150 200">
  <defs>
    <clipPath id="clip-react">
      <rect width="150" height="200"/>
    </clipPath>
  </defs>
  <g id="react" clip-path="url(#clip-react)">
    <rect width="150" height="200" fill="#222"/>
    <g id="Group_1" data-name="Group 1" transform="translate(1574.13 -244.111)">
      <circle id="Ellipse_1" data-name="Ellipse 1" cx="8.45" cy="8.45" r="8.45" transform="translate(-1507.292 335.645)" fill="#53c1de"/>
      <path id="Path_4" data-name="Path 4" d="M229.989,1191.9c11.343,0,21.882,1.628,29.826,4.362,9.573,3.3,15.459,8.291,15.459,12.815,0,4.714-6.238,10.022-16.517,13.426-7.771,2.575-18,3.921-28.768,3.921-11.041,0-21.494-1.262-29.354-3.949-9.944-3.4-15.934-8.774-15.934-13.4,0-4.487,5.621-9.444,15.06-12.734C207.735,1193.564,218.534,1191.9,229.989,1191.9Z" transform="translate(-1728.83 -864.984)" fill="none" stroke="#53c1de" stroke-miterlimit="10" stroke-width="4"/>
      <path id="Path_5" data-name="Path 5" d="M851.447,406.672c5.666-9.827,12.343-18.143,18.682-23.658,7.637-6.646,14.906-9.249,18.824-6.99,4.083,2.354,5.565,10.41,3.379,21.019-1.653,8.02-5.6,17.551-10.977,26.88-5.515,9.564-11.832,17.989-18.084,23.457-7.911,6.917-15.562,9.419-19.567,7.11-3.887-2.242-5.373-9.587-3.51-19.408C841.769,426.778,845.723,416.594,851.447,406.672Z" transform="translate(-2365.243 -71.117)" fill="none" stroke="#53c1de" stroke-miterlimit="10" stroke-width="4"/>
      <path id="Path_6" data-name="Path 6" d="M852.322,427.051c-5.683-9.818-9.553-19.754-11.167-28-1.944-9.936-.57-17.534,3.345-19.8,4.08-2.362,11.8.377,19.9,7.568,6.124,5.437,12.41,13.613,17.8,22.935,5.532,9.556,9.679,19.235,11.29,27.38,2.041,10.31.388,18.187-3.613,20.5-3.884,2.248-10.988-.131-18.567-6.652C864.911,445.476,858.061,436.964,852.322,427.051Z" transform="translate(-2366.104 -74.224)" fill="none" stroke="#53c1de" stroke-miterlimit="10" stroke-width="4"/>
    </g>
  </g>
</svg>
