<svg xmlns="http://www.w3.org/2000/svg" width="25.377" height="49.191" viewBox="0 0 25.377 49.191">
  <path id="_" data-name="$" d="M-593.789,104.456h4.121l-.739,5.542q1.477.143,2.969.37t2.771.54v4.376q-1.563-.4-3.154-.682t-3.126-.427l-1.62,12.163q1.9.74,3.779,1.606a16.666,16.666,0,0,1,3.368,2.046,9.624,9.624,0,0,1,2.415,2.8,7.684,7.684,0,0,1,.924,3.866,9,9,0,0,1-.966,4.234,9.091,9.091,0,0,1-2.7,3.126,13.346,13.346,0,0,1-4.177,2,22.777,22.777,0,0,1-5.371.867l-.938,6.763h-4.149l.938-6.763q-2.3-.171-4.391-.5t-3.623-.725v-4.717a26.894,26.894,0,0,0,3.907,1.023,36.307,36.307,0,0,0,4.7.539l1.677-12.787q-1.846-.711-3.637-1.535a14.724,14.724,0,0,1-3.2-1.975,9.51,9.51,0,0,1-2.288-2.714,7.466,7.466,0,0,1-.881-3.722,8.743,8.743,0,0,1,.739-3.482,8.727,8.727,0,0,1,2.3-3.1,12.612,12.612,0,0,1,3.95-2.274,19.065,19.065,0,0,1,5.683-1.065Zm-1.279,9.663a9.449,9.449,0,0,0-5.186,1.662,4.279,4.279,0,0,0-1.634,3.453,4.223,4.223,0,0,0,1.35,3.225,12.673,12.673,0,0,0,4.021,2.316Zm.341,28.388q3.837-.282,5.584-1.705a4.712,4.712,0,0,0,1.748-3.864,4.374,4.374,0,0,0-.37-1.833,4.382,4.382,0,0,0-1.108-1.464,9.077,9.077,0,0,0-1.833-1.222,25.27,25.27,0,0,0-2.572-1.136Z" transform="translate(607.458 -104.456)" fill="#fff"/>
</svg>
