<svg xmlns="http://www.w3.org/2000/svg" width="31.317" height="52.316" viewBox="0 0 31.317 52.316">
  <path id="_" data-name="@" d="M-672.834,135.346a26.966,26.966,0,0,0-.285,3.013,6.864,6.864,0,0,0,.157,1.876,1.6,1.6,0,0,0,.582.951,1.725,1.725,0,0,0,.995.27,2,2,0,0,0,1.506-.838,7.638,7.638,0,0,0,1.265-2.586,25.024,25.024,0,0,0,.881-4.419,53.254,53.254,0,0,0,.326-6.337,46.788,46.788,0,0,0-.511-7.3,19.143,19.143,0,0,0-1.62-5.457,8.508,8.508,0,0,0-2.884-3.424,7.612,7.612,0,0,0-4.306-1.18,7.732,7.732,0,0,0-3.736.981,12.212,12.212,0,0,0-3.354,2.757,20.778,20.778,0,0,0-2.813,4.262,32.7,32.7,0,0,0-2.16,5.5,45.249,45.249,0,0,0-1.392,6.479,50.751,50.751,0,0,0-.5,7.219q0,9.148,2.757,13.654a8.639,8.639,0,0,0,7.758,4.5,18.3,18.3,0,0,0,4.717-.582,24.719,24.719,0,0,0,4.547-1.748V156.6a23.925,23.925,0,0,1-4.661,1.62,21.638,21.638,0,0,1-4.887.539q-7.246,0-10.728-5.428t-3.538-16.169a52.511,52.511,0,0,1,.569-8.227,44.976,44.976,0,0,1,1.719-7.346,33.432,33.432,0,0,1,2.728-6.209,21.575,21.575,0,0,1,3.637-4.774,15.778,15.778,0,0,1,4.419-3.07,12.086,12.086,0,0,1,5.087-1.093,11.927,11.927,0,0,1,5.868,1.378,11.221,11.221,0,0,1,4.106,3.978,19.445,19.445,0,0,1,2.4,6.38,42.783,42.783,0,0,1,.781,8.61,50.983,50.983,0,0,1-.639,8.369,21.042,21.042,0,0,1-1.719,5.7,8.114,8.114,0,0,1-2.686,3.254,6.252,6.252,0,0,1-3.51,1.037,4.347,4.347,0,0,1-3.3-1.137,4.273,4.273,0,0,1-1.08-3.069,9.409,9.409,0,0,1-2.33,3.2,4.645,4.645,0,0,1-3.012,1.009,4.494,4.494,0,0,1-4.007-2q-1.336-2-1.336-6.322a32.558,32.558,0,0,1,.185-3.354,26.65,26.65,0,0,1,.625-3.595,22.147,22.147,0,0,1,1.151-3.466,12.023,12.023,0,0,1,1.748-2.928,8.168,8.168,0,0,1,2.458-2.031,6.7,6.7,0,0,1,3.24-.768,7.621,7.621,0,0,1,2.017.256,5.769,5.769,0,0,1,1.364.512l3.666-.881Zm-2.9-10.116a2.212,2.212,0,0,0-.782-.611,2.876,2.876,0,0,0-1.321-.27,2.272,2.272,0,0,0-1.535.6,5.484,5.484,0,0,0-1.207,1.591,11.458,11.458,0,0,0-.881,2.259q-.355,1.265-.6,2.6a25.857,25.857,0,0,0-.341,2.628q-.1,1.293-.1,2.316a15.834,15.834,0,0,0,.341,3.922q.341,1.192,1.307,1.193a1.741,1.741,0,0,0,.682-.142,2.2,2.2,0,0,0,.725-.554,7.427,7.427,0,0,0,.838-1.151,17.883,17.883,0,0,0,1-1.932Z" transform="translate(694.717 -106.446)" fill="#fff"/>
</svg>
