<svg xmlns="http://www.w3.org/2000/svg" width="23.53" height="29.554" viewBox="0 0 23.53 29.554">
  <path id="a" d="M-672.124-117.864l-.114-3.836a15.444,15.444,0,0,1-4.731,3.324,12.721,12.721,0,0,1-5.044,1.024,12.344,12.344,0,0,1-4.177-.626,7.8,7.8,0,0,1-2.856-1.719,6.657,6.657,0,0,1-1.649-2.572,9.525,9.525,0,0,1-.526-3.211,7.968,7.968,0,0,1,3.2-6.72q3.2-2.43,9.448-2.43h5.911v-2.5a5.289,5.289,0,0,0-1.62-4.049,7,7,0,0,0-4.945-1.521,21.132,21.132,0,0,0-4.759.54,33.428,33.428,0,0,0-4.845,1.535v-4.462q.938-.341,2.088-.668t2.43-.582q1.28-.257,2.671-.412a25.241,25.241,0,0,1,2.813-.156,17.645,17.645,0,0,1,4.661.568,9.468,9.468,0,0,1,3.51,1.733,7.645,7.645,0,0,1,2.2,2.927,10.324,10.324,0,0,1,.767,4.149v19.665Zm-.54-12.987h-6.28a12.049,12.049,0,0,0-3.183.37,6.038,6.038,0,0,0-2.188,1.051,4.234,4.234,0,0,0-1.265,1.634,5.363,5.363,0,0,0-.412,2.145,4.887,4.887,0,0,0,.256,1.578,3.519,3.519,0,0,0,.824,1.336,3.973,3.973,0,0,0,1.478.923,6.347,6.347,0,0,0,2.217.341,9.363,9.363,0,0,0,3.907-1.037,19.071,19.071,0,0,0,4.646-3.283Z" transform="translate(691.221 146.906)" fill="#fff"/>
</svg>
