<svg xmlns="http://www.w3.org/2000/svg" width="24.382" height="40.495" viewBox="0 0 24.382 40.495">
  <path id="b" d="M-328.517-30.792a19.154,19.154,0,0,1-.98,6.351,13.378,13.378,0,0,1-2.785,4.746,11.971,11.971,0,0,1-4.39,2.984,15.528,15.528,0,0,1-5.826,1.037,28.731,28.731,0,0,1-5.172-.483,26.444,26.444,0,0,1-5.229-1.535V-56.169h4.944v11.055l-.227,5.285a12.842,12.842,0,0,1,4.561-4.049,11.789,11.789,0,0,1,5.215-1.179,8.715,8.715,0,0,1,4.291,1.023,8.9,8.9,0,0,1,3.1,2.884,13.646,13.646,0,0,1,1.876,4.49A25.447,25.447,0,0,1-328.517-30.792Zm-5.058.227a24.048,24.048,0,0,0-.327-4.12,10.763,10.763,0,0,0-1.037-3.211,5.7,5.7,0,0,0-1.819-2.089,4.6,4.6,0,0,0-2.643-.753,6.426,6.426,0,0,0-1.9.3,7.723,7.723,0,0,0-2,.995A14.891,14.891,0,0,0-345.5-37.6a29,29,0,0,0-2.459,2.856V-20.9a19.435,19.435,0,0,0,2.956.9,13.534,13.534,0,0,0,2.87.326,9.813,9.813,0,0,0,3.254-.539,6.722,6.722,0,0,0,2.728-1.805,9.041,9.041,0,0,0,1.876-3.354A16.587,16.587,0,0,0-333.575-30.565Z" transform="translate(352.899 56.169)" fill="#fff"/>
</svg>
