<svg xmlns="http://www.w3.org/2000/svg" width="22.222" height="29.327" viewBox="0 0 22.222 29.327">
  <path id="c" d="M-499.511-17.066a21.374,21.374,0,0,1-3.964,1.094,24.288,24.288,0,0,1-4.192.355q-6.764,0-10.415-3.666T-521.733-30a17.1,17.1,0,0,1,1.051-6.138,13.661,13.661,0,0,1,2.956-4.718,13.051,13.051,0,0,1,4.546-3.026,15.436,15.436,0,0,1,5.826-1.066,26.054,26.054,0,0,1,4.149.313,17.2,17.2,0,0,1,3.694,1.023v4.717a15.64,15.64,0,0,0-3.765-1.406,17.637,17.637,0,0,0-3.964-.441,9.011,9.011,0,0,0-3.6.725,8.765,8.765,0,0,0-2.97,2.089,9.887,9.887,0,0,0-2.017,3.324,12.493,12.493,0,0,0-.739,4.433q0,5.173,2.515,7.744a9.306,9.306,0,0,0,6.976,2.572,16.659,16.659,0,0,0,3.908-.455,16.176,16.176,0,0,0,3.651-1.364Z" transform="translate(521.733 44.944)" fill="#fff"/>
</svg>
