<svg xmlns="http://www.w3.org/2000/svg" width="24.211" height="40.666" viewBox="0 0 24.211 40.666">
  <path id="d" d="M-523.125-131.533a19.436,19.436,0,0,1,.994-6.465,13.311,13.311,0,0,1,2.827-4.774,11.965,11.965,0,0,1,4.405-2.955,15.553,15.553,0,0,1,5.726-1.009,21.087,21.087,0,0,1,2.686.17,17.419,17.419,0,0,1,2.6.54v-11.992h4.973v40.154h-4.433l-.171-5.4a14.95,14.95,0,0,1-4.489,4.461,9.989,9.989,0,0,1-5.229,1.45,8.785,8.785,0,0,1-4.306-1.024,8.73,8.73,0,0,1-3.1-2.884,13.824,13.824,0,0,1-1.861-4.475A24.943,24.943,0,0,1-523.125-131.533Zm5.058-.312q0,5.172,1.52,7.715a4.763,4.763,0,0,0,4.3,2.543,6.463,6.463,0,0,0,3.965-1.676,23.978,23.978,0,0,0,4.39-4.973v-13.243a12.041,12.041,0,0,0-2.7-.867,14.762,14.762,0,0,0-2.928-.3,7.872,7.872,0,0,0-6.294,2.615Q-518.067-137.414-518.067-131.845Z" transform="translate(523.125 158.018)" fill="#fff"/>
</svg>
