<svg xmlns="http://www.w3.org/2000/svg" width="9.435" height="9.463" viewBox="0 0 9.435 9.463">
  <path id="_." data-name="." d="M-516.272,137.99a4.632,4.632,0,0,1,1.833.369,4.6,4.6,0,0,1,1.506,1.023,4.892,4.892,0,0,1,1.009,1.52,4.705,4.705,0,0,1,.37,1.861,4.527,4.527,0,0,1-.37,1.819,4.743,4.743,0,0,1-1.009,1.492,4.7,4.7,0,0,1-1.506,1.008,4.634,4.634,0,0,1-1.833.371,4.6,4.6,0,0,1-1.847-.371,4.753,4.753,0,0,1-1.492-1.008,4.761,4.761,0,0,1-1.009-1.492,4.526,4.526,0,0,1-.369-1.819,4.7,4.7,0,0,1,.369-1.861,4.91,4.91,0,0,1,1.009-1.52,4.647,4.647,0,0,1,1.492-1.023A4.6,4.6,0,0,1-516.272,137.99Z" transform="translate(520.989 -137.99)" fill="#fff"/>
</svg>
