<svg xmlns="http://www.w3.org/2000/svg" width="25.32" height="29.555" viewBox="0 0 25.32 29.555">
  <path id="e" d="M-497.578-235.484q0,1.051-.029,1.762t-.085,1.336h-20.034a8.873,8.873,0,0,0,2.444,6.72q2.443,2.345,7.047,2.345,1.251,0,2.5-.1t2.415-.27q1.166-.17,2.231-.383t1.975-.469v4.064a34.553,34.553,0,0,1-4.561.923,38.049,38.049,0,0,1-5.271.356,17.929,17.929,0,0,1-6.309-1,10.786,10.786,0,0,1-4.334-2.885,11.867,11.867,0,0,1-2.5-4.632,21.913,21.913,0,0,1-.81-6.209,18.428,18.428,0,0,1,.866-5.7,14.3,14.3,0,0,1,2.53-4.718,12.147,12.147,0,0,1,4.078-3.225,12.211,12.211,0,0,1,5.484-1.194,13.929,13.929,0,0,1,5.286.938,10.623,10.623,0,0,1,3.879,2.657,11.347,11.347,0,0,1,2.387,4.177A17.513,17.513,0,0,1-497.578-235.484Zm-5.144-.71a10.806,10.806,0,0,0-.369-3.481,7.334,7.334,0,0,0-1.407-2.714,6.552,6.552,0,0,0-2.373-1.776,7.966,7.966,0,0,0-3.3-.64,6.886,6.886,0,0,0-2.956.626,6.728,6.728,0,0,0-2.3,1.761,9.079,9.079,0,0,0-1.563,2.728,12.554,12.554,0,0,0-.739,3.5Z" transform="translate(522.898 248.755)" fill="#fff"/>
</svg>
