<svg xmlns="http://www.w3.org/2000/svg" width="26.996" height="40.978" viewBox="0 0 26.996 40.978">
  <path id="g" d="M-332.353-142.36a7.456,7.456,0,0,1,1.236,2.316,8.969,8.969,0,0,1,.441,2.856,9.911,9.911,0,0,1-.81,4.05,8.99,8.99,0,0,1-2.288,3.14,10.558,10.558,0,0,1-3.538,2.032,13.583,13.583,0,0,1-4.533.724,14.076,14.076,0,0,1-3.353-.383,8.578,8.578,0,0,1-2.472-.952,15.212,15.212,0,0,0-.91,1.506,3.4,3.4,0,0,0-.369,1.591,2.1,2.1,0,0,0,1.037,1.79,5.079,5.079,0,0,0,2.743.768l7.5.284a16.965,16.965,0,0,1,3.936.54,9.693,9.693,0,0,1,3.1,1.392,6.536,6.536,0,0,1,2.018,2.245,6.4,6.4,0,0,1,.724,3.1,8.2,8.2,0,0,1-.824,3.609,8.256,8.256,0,0,1-2.543,3,13.43,13.43,0,0,1-4.362,2.06,22.668,22.668,0,0,1-6.28.768,26.891,26.891,0,0,1-5.9-.555,12.9,12.9,0,0,1-3.993-1.534,6.2,6.2,0,0,1-2.273-2.33,6.277,6.277,0,0,1-.71-2.97,6.778,6.778,0,0,1,.965-3.638,10.918,10.918,0,0,1,2.984-3.012,4.714,4.714,0,0,1-1.279-.852,4.7,4.7,0,0,1-.88-1.123,5.276,5.276,0,0,1-.512-1.293,5.524,5.524,0,0,1-.171-1.335,6.756,6.756,0,0,1,.868-3.382,17.286,17.286,0,0,1,2.06-2.9,14.353,14.353,0,0,1-.952-1.279,7.889,7.889,0,0,1-.711-1.349,7.889,7.889,0,0,1-.454-1.563,10.469,10.469,0,0,1-.157-1.919,9.909,9.909,0,0,1,.81-4.049,9.077,9.077,0,0,1,2.274-3.14,10.4,10.4,0,0,1,3.523-2.032,13.676,13.676,0,0,1,4.561-.724,13.828,13.828,0,0,1,2.018.142,11.425,11.425,0,0,1,1.7.369h10.344v4.035Zm-17.164,28.617a3.075,3.075,0,0,0,2.1,2.941,14.953,14.953,0,0,0,5.854.923,15.718,15.718,0,0,0,3.965-.426,8.039,8.039,0,0,0,2.586-1.122,4.181,4.181,0,0,0,1.406-1.592,4.208,4.208,0,0,0,.427-1.833,2.752,2.752,0,0,0-1.421-2.557,9.916,9.916,0,0,0-4.348-.967l-7.446-.255a10.761,10.761,0,0,0-1.548,1.222,5.329,5.329,0,0,0-.952,1.208,4.632,4.632,0,0,0-.483,1.221A5.434,5.434,0,0,0-349.517-113.743Zm1.506-23.331a6.681,6.681,0,0,0,.454,2.5,5.463,5.463,0,0,0,1.279,1.932,5.811,5.811,0,0,0,1.947,1.236,6.743,6.743,0,0,0,2.486.441,6.564,6.564,0,0,0,2.629-.5,5.572,5.572,0,0,0,1.932-1.35,5.927,5.927,0,0,0,1.194-1.96,6.546,6.546,0,0,0,.412-2.3,6.677,6.677,0,0,0-.455-2.5,5.463,5.463,0,0,0-1.279-1.932,5.847,5.847,0,0,0-1.946-1.236,6.745,6.745,0,0,0-2.487-.441,6.408,6.408,0,0,0-2.628.512,5.855,5.855,0,0,0-1.933,1.35,5.757,5.757,0,0,0-1.193,1.946A6.546,6.546,0,0,0-348.011-137.074Z" transform="translate(354.774 146.906)" fill="#fff"/>
</svg>
