<svg xmlns="http://www.w3.org/2000/svg" width="22.933" height="40.154" viewBox="0 0 22.933 40.154">
  <path id="h" d="M-245.578-117.864h-4.944V-136.08a8.13,8.13,0,0,0-1.237-4.93,4.171,4.171,0,0,0-3.538-1.634,6.22,6.22,0,0,0-1.861.27,6.473,6.473,0,0,0-1.8.938,15.445,15.445,0,0,0-2.047,1.805q-1.108,1.136-2.557,2.841v18.926h-4.945v-40.154h4.945V-146.4l-.171,4.49a19.442,19.442,0,0,1,2.288-2.345A12.688,12.688,0,0,1-259.2-145.8a8.967,8.967,0,0,1,2.287-.853,11.27,11.27,0,0,1,2.416-.255,8.393,8.393,0,0,1,6.593,2.6q2.33,2.6,2.33,7.829Z" transform="translate(268.511 158.018)" fill="#fff"/>
</svg>
