<svg xmlns="http://www.w3.org/2000/svg" width="22.877" height="40.495" viewBox="0 0 22.877 40.495">
  <path id="i" d="M-90.014-244.151h-8.441v-4.092h13.441v24.41h8.5v4.121H-99.393v-4.121h9.379Zm1.733-16.056a3.929,3.929,0,0,1,1.535.3,3.725,3.725,0,0,1,1.236.839,4.047,4.047,0,0,1,.824,1.236,3.8,3.8,0,0,1,.3,1.52,3.826,3.826,0,0,1-.3,1.506,4,4,0,0,1-.824,1.251,3.723,3.723,0,0,1-1.236.838,3.929,3.929,0,0,1-1.535.3,3.909,3.909,0,0,1-1.533-.3,3.7,3.7,0,0,1-1.237-.838,3.98,3.98,0,0,1-.824-1.251,3.844,3.844,0,0,1-.3-1.506,3.817,3.817,0,0,1,.3-1.52,4.029,4.029,0,0,1,.824-1.236,3.7,3.7,0,0,1,1.237-.839A3.909,3.909,0,0,1-88.281-260.207Z" transform="translate(99.393 260.207)" fill="#fff"/>
</svg>
