<svg xmlns="http://www.w3.org/2000/svg" width="21.058" height="52.431" viewBox="0 0 21.058 52.431">
  <path id="j" d="M-164.8-146.4v28.019a15.3,15.3,0,0,1-.852,5.3,10.643,10.643,0,0,1-2.444,3.907A10.344,10.344,0,0,1-172-106.753a15.478,15.478,0,0,1-5.215.825,21.768,21.768,0,0,1-4.107-.384,18.109,18.109,0,0,1-3.623-1.066V-112.1a16.542,16.542,0,0,0,1.89.824,18.86,18.86,0,0,0,2.075.625,18.331,18.331,0,0,0,2.145.384,17.939,17.939,0,0,0,2.1.128,6.51,6.51,0,0,0,5.087-2.046q1.847-2.047,1.847-6.025v-24.1h-13.982V-146.4Zm-2.984-11.964a3.94,3.94,0,0,1,1.535.3,3.74,3.74,0,0,1,1.236.839,4,4,0,0,1,.824,1.25,3.853,3.853,0,0,1,.3,1.507,3.817,3.817,0,0,1-.3,1.52,4.047,4.047,0,0,1-.824,1.236,3.723,3.723,0,0,1-1.236.838,3.923,3.923,0,0,1-1.535.3,3.918,3.918,0,0,1-1.534-.3,3.7,3.7,0,0,1-1.236-.838,4.029,4.029,0,0,1-.824-1.236,3.817,3.817,0,0,1-.3-1.52,3.853,3.853,0,0,1,.3-1.507,3.987,3.987,0,0,1,.824-1.25,3.72,3.72,0,0,1,1.236-.839A3.935,3.935,0,0,1-167.782-158.359Z" transform="translate(184.946 158.359)" fill="#fff"/>
</svg>
