<svg xmlns="http://www.w3.org/2000/svg" width="28.282" height="11.651" viewBox="0 0 28.282 11.651">
  <path id="_" data-name="~" d="M-333.114,127.162a14.9,14.9,0,0,1-.454,3.993,8.888,8.888,0,0,1-1.507,3.169,7.145,7.145,0,0,1-2.543,2.088,7.876,7.876,0,0,1-3.538.753,7.164,7.164,0,0,1-2.813-.526,10.877,10.877,0,0,1-2.316-1.321,15.679,15.679,0,0,1-1.961-1.734q-.9-.937-1.762-1.733a11.474,11.474,0,0,0-1.719-1.321,3.4,3.4,0,0,0-1.819-.526,2.708,2.708,0,0,0-2.486,1.335,8.384,8.384,0,0,0-.81,4.206h-4.547a13.826,13.826,0,0,1,.44-3.992,9.35,9.35,0,0,1,1.507-3.184,6.984,6.984,0,0,1,2.528-2.1,7.88,7.88,0,0,1,3.539-.753,7.222,7.222,0,0,1,2.813.525,11.018,11.018,0,0,1,2.316,1.322,15.742,15.742,0,0,1,1.961,1.733q.9.939,1.762,1.734a11.383,11.383,0,0,0,1.719,1.322,3.41,3.41,0,0,0,1.819.525,2.726,2.726,0,0,0,2.557-1.307,8.674,8.674,0,0,0,.767-4.206Z" transform="translate(361.395 -125.514)" fill="#fff"/>
</svg>
