<svg xmlns="http://www.w3.org/2000/svg" width="26.883" height="29.042" viewBox="0 0 26.883 29.042">
  <path id="m" d="M-163.775-16.015V-36.5a19.647,19.647,0,0,0-.1-2.188,4.985,4.985,0,0,0-.313-1.35,1.448,1.448,0,0,0-.54-.7,1.539,1.539,0,0,0-.81-.2,1.786,1.786,0,0,0-1.051.341,4.735,4.735,0,0,0-1.037,1.109,17.443,17.443,0,0,0-1.222,2.031q-.668,1.266-1.577,3.112v18.329h-4.519V-35.964q0-1.563-.1-2.529A5.936,5.936,0,0,0-175.355-40a1.416,1.416,0,0,0-.554-.739,1.614,1.614,0,0,0-.824-.2,1.8,1.8,0,0,0-.966.284,4.123,4.123,0,0,0-1.009,1.023,15.931,15.931,0,0,0-1.236,2.018q-.683,1.28-1.62,3.268v18.329h-4.547V-44.546h3.779l.228,5.428a25.9,25.9,0,0,1,1.435-2.757,8.9,8.9,0,0,1,1.435-1.833,4.9,4.9,0,0,1,1.577-1.023,5.1,5.1,0,0,1,1.862-.326,4.193,4.193,0,0,1,3.495,1.506,7.457,7.457,0,0,1,1.194,4.66q.681-1.478,1.335-2.629a9.621,9.621,0,0,1,1.407-1.932,5.406,5.406,0,0,1,1.662-1.194,5.059,5.059,0,0,1,2.1-.411q5.371,0,5.371,8.269v20.773Z" transform="translate(186.111 45.057)" fill="#fff"/>
</svg>
