<svg xmlns="http://www.w3.org/2000/svg" width="22.933" height="29.042" viewBox="0 0 22.933 29.042">
  <path id="n" d="M-268.511-44.546h4.4l.2,4.6a20.649,20.649,0,0,1,2.415-2.458,13.273,13.273,0,0,1,2.288-1.577,8.559,8.559,0,0,1,2.287-.838,11.876,11.876,0,0,1,2.416-.241q4.406,0,6.664,2.6t2.259,7.829v18.613h-4.944V-34.231a8.037,8.037,0,0,0-1.251-4.958,4.43,4.43,0,0,0-3.723-1.606,5.928,5.928,0,0,0-1.775.27,6.464,6.464,0,0,0-1.8.938,14.868,14.868,0,0,0-2.032,1.805q-1.094,1.135-2.458,2.841v18.926h-4.945Z" transform="translate(268.511 45.057)" fill="#fff"/>
</svg>
