<svg xmlns="http://www.w3.org/2000/svg" width="26.769" height="29.555" viewBox="0 0 26.769 29.555">
  <path id="o" d="M9.493-234.205a18.914,18.914,0,0,1-.937,6.1,13.557,13.557,0,0,1-2.7,4.746,12.089,12.089,0,0,1-4.291,3.069,14.332,14.332,0,0,1-5.74,1.1,14.992,14.992,0,0,1-5.5-.952,10.881,10.881,0,0,1-4.12-2.8,12.374,12.374,0,0,1-2.586-4.575,20.127,20.127,0,0,1-.895-6.28,18.658,18.658,0,0,1,.937-6.067,13.619,13.619,0,0,1,2.7-4.717,12.121,12.121,0,0,1,4.291-3.07,14.337,14.337,0,0,1,5.741-1.094,15,15,0,0,1,5.5.952,10.962,10.962,0,0,1,4.12,2.785A12.254,12.254,0,0,1,8.6-240.457,20.062,20.062,0,0,1,9.493-234.205Zm-5.058.227a16.442,16.442,0,0,0-.582-4.617,9.312,9.312,0,0,0-1.664-3.3,6.846,6.846,0,0,0-2.627-1.989,8.646,8.646,0,0,0-3.454-.668,7.772,7.772,0,0,0-3.794.867,7.52,7.52,0,0,0-2.585,2.316A9.962,9.962,0,0,0-11.749-238a16.858,16.858,0,0,0-.469,4.021,16.605,16.605,0,0,0,.582,4.633,9.3,9.3,0,0,0,1.663,3.31,6.875,6.875,0,0,0,2.615,1.989,8.585,8.585,0,0,0,3.466.668A7.767,7.767,0,0,0-.1-224.245a7.5,7.5,0,0,0,2.586-2.316,10,10,0,0,0,1.478-3.367A17.038,17.038,0,0,0,4.435-233.978Z" transform="translate(17.276 248.755)" fill="#fff"/>
</svg>
