<svg xmlns="http://www.w3.org/2000/svg" width="24.382" height="40.694" viewBox="0 0 24.382 40.694">
  <path id="p" d="M93.427-234.489a18.894,18.894,0,0,1-1.066,6.65,13.021,13.021,0,0,1-2.941,4.717,12.053,12.053,0,0,1-4.433,2.813,15.981,15.981,0,0,1-5.542.938,26.13,26.13,0,0,1-2.714-.142A20.724,20.724,0,0,1,73.989-220v11.935H69.045v-40.182h4.4l.313,4.774a12.723,12.723,0,0,1,4.547-4.106,11.759,11.759,0,0,1,5.229-1.18,8.715,8.715,0,0,1,4.291,1.023,8.906,8.906,0,0,1,3.1,2.885,13.661,13.661,0,0,1,1.875,4.489A25.4,25.4,0,0,1,93.427-234.489Zm-5.058.227a24.05,24.05,0,0,0-.327-4.12A10.734,10.734,0,0,0,87-241.593a5.7,5.7,0,0,0-1.819-2.089,4.59,4.59,0,0,0-2.643-.753,6.415,6.415,0,0,0-1.9.3,7.712,7.712,0,0,0-2,.995,14.883,14.883,0,0,0-2.189,1.847,29.145,29.145,0,0,0-2.458,2.856V-224.6a16.5,16.5,0,0,0,2.87.9,13.846,13.846,0,0,0,2.956.327,7.752,7.752,0,0,0,6.281-2.714Q88.367-228.806,88.369-234.262Z" transform="translate(-69.045 248.755)" fill="#fff"/>
</svg>
