<svg xmlns="http://www.w3.org/2000/svg" width="24.211" height="40.694" viewBox="0 0 24.211 40.694">
  <path id="q" d="M-691.9-233.381a20.6,20.6,0,0,1,.809-5.826,13.8,13.8,0,0,1,2.5-4.845,11.9,11.9,0,0,1,4.334-3.31,14.938,14.938,0,0,1,6.308-1.222,18.214,18.214,0,0,1,2.871.227,23.069,23.069,0,0,1,3.012.71l4.376-1.108v40.694h-4.973v-10.77l.256-6.11q-4.036,5.74-9.6,5.741a8.832,8.832,0,0,1-4.348-1.024,8.726,8.726,0,0,1-3.083-2.9,13.8,13.8,0,0,1-1.848-4.49A25.388,25.388,0,0,1-691.9-233.381Zm5.058-.312a23.512,23.512,0,0,0,.355,4.291,10.838,10.838,0,0,0,1.08,3.225,5.513,5.513,0,0,0,1.819,2.032,4.618,4.618,0,0,0,2.571.71,6.463,6.463,0,0,0,3.965-1.676,23.96,23.96,0,0,0,4.39-4.974v-13.242a12.96,12.96,0,0,0-2.572-.881,13.19,13.19,0,0,0-3.055-.341,7.646,7.646,0,0,0-6.365,2.756Q-686.844-239.036-686.844-233.693Z" transform="translate(691.902 248.755)" fill="#fff"/>
</svg>
