<svg xmlns="http://www.w3.org/2000/svg" width="23.457" height="29.043" viewBox="0 0 23.457 29.043">
  <path id="r" d="M-436.123-248.243h4.519l.142,5.257a18.306,18.306,0,0,1,4.987-4.405,10.132,10.132,0,0,1,4.959-1.364,8.081,8.081,0,0,1,6.721,2.871q2.286,2.87,2.117,8.524h-5q.086-3.75-1.093-5.441a3.946,3.946,0,0,0-3.454-1.691,5.992,5.992,0,0,0-2,.355A8.1,8.1,0,0,0-426.3-243a18.533,18.533,0,0,0-2.259,2,36.862,36.862,0,0,0-2.558,2.956v18.329h-5Z" transform="translate(436.123 248.755)" fill="#fff"/>
</svg>
