<svg xmlns="http://www.w3.org/2000/svg" width="21.966" height="29.554" viewBox="0 0 21.966 29.554">
  <path id="s" d="M-583.474-125.651a6.788,6.788,0,0,1-.511,2.7,7.092,7.092,0,0,1-1.392,2.117,8.679,8.679,0,0,1-2.047,1.578,13.642,13.642,0,0,1-2.486,1.08,16.424,16.424,0,0,1-2.714.625,19.369,19.369,0,0,1-2.728.2,51.243,51.243,0,0,1-5.328-.256,35.827,35.827,0,0,1-4.76-.824v-4.547a39.671,39.671,0,0,0,4.973,1.08,33.25,33.25,0,0,0,4.916.369,11.032,11.032,0,0,0,5.257-.966,3.021,3.021,0,0,0,1.705-2.757,3.379,3.379,0,0,0-.27-1.378,3.142,3.142,0,0,0-.98-1.165,9.4,9.4,0,0,0-2.2-1.151q-1.491-.6-4.077-1.364a28.921,28.921,0,0,1-3.567-1.293,11.945,11.945,0,0,1-2.827-1.719,7.375,7.375,0,0,1-1.876-2.33,6.852,6.852,0,0,1-.682-3.155,7.262,7.262,0,0,1,.554-2.614,7.111,7.111,0,0,1,1.89-2.643,10.52,10.52,0,0,1,3.609-2.032,17.119,17.119,0,0,1,5.684-.809q1.676,0,3.722.184a38.928,38.928,0,0,1,4.263.639v4.4a40.728,40.728,0,0,0-4.419-.838,28.794,28.794,0,0,0-3.623-.27,14.488,14.488,0,0,0-3.112.284,6.459,6.459,0,0,0-2.046.782,3.044,3.044,0,0,0-1.122,1.165,3.1,3.1,0,0,0-.342,1.435,3.187,3.187,0,0,0,.3,1.392,3.327,3.327,0,0,0,1.108,1.208,10.881,10.881,0,0,0,2.259,1.165q1.45.583,3.78,1.265a30.249,30.249,0,0,1,4.262,1.548,11.006,11.006,0,0,1,2.814,1.805,5.823,5.823,0,0,1,1.549,2.245A8.068,8.068,0,0,1-583.474-125.651Z" transform="translate(605.44 146.906)" fill="#fff"/>
</svg>
