<svg xmlns="http://www.w3.org/2000/svg" width="22.934" height="29.043" viewBox="0 0 22.934 29.043">
  <path id="u" d="M-161.188-219.712h-4.434l-.17-4.6a22.962,22.962,0,0,1-2.43,2.458,12.539,12.539,0,0,1-2.288,1.578,8.8,8.8,0,0,1-2.287.838,11.815,11.815,0,0,1-2.43.242q-4.405,0-6.649-2.587t-2.246-7.814v-18.642h4.945V-230q0,6.564,4.945,6.564a5.939,5.939,0,0,0,1.776-.27,6.606,6.606,0,0,0,1.818-.938,14.374,14.374,0,0,0,2.047-1.8q1.094-1.137,2.458-2.87v-18.926h4.945Z" transform="translate(184.122 248.243)" fill="#fff"/>
</svg>
