<svg xmlns="http://www.w3.org/2000/svg" width="28.247" height="40.353" viewBox="0 0 28.247 40.353">
  <path id="y" d="M-243.134-248.243l-9.719,25.519a50.191,50.191,0,0,1-3.111,6.706,19.9,19.9,0,0,1-3.51,4.618,12.362,12.362,0,0,1-4.177,2.657,14.388,14.388,0,0,1-5.087.853q-.739,0-1.336-.029t-1.307-.085v-4.49q.626.086,1.364.156c.493.047,1.013.071,1.563.071a7.908,7.908,0,0,0,2.543-.4,6.776,6.776,0,0,0,2.231-1.293,11.519,11.519,0,0,0,2.018-2.316,22.871,22.871,0,0,0,1.875-3.438l-11.4-28.531h5.627l7.218,18.869,1.449,4.433,1.648-4.546,6.678-18.756Z" transform="translate(271.381 248.243)" fill="#fff"/>
</svg>
